<svg xmlns="http://www.w3.org/2000/svg" xmlns:xlink="http://www.w3.org/1999/xlink" width="1620" height="1577" viewBox="0 0 1620 1577">
  <defs>
    <clipPath id="clip-path">
      <path id="Path_19" data-name="Path 19" d="M5860,3734s-71.472,81.677-110,120-222.547,107.329-300.754,123.431-159.067,85.937-181.718,182.868-117.151,138.239-198.372,151.7-323.094-52.88-462.6-17.469-178.612,97.416-197.014,148.021S4376.307,4557.3,4280,4608.168c.617-95.723,0-874.168,0-874.168Z" transform="translate(-4280 -3734)" fill="#fff"/>
    </clipPath>
    <linearGradient id="linear-gradient" x1="0.5" x2="0.5" y2="1" gradientUnits="objectBoundingBox">
      <stop offset="0" stop-color="#43e2b2"/>
      <stop offset="1" stop-color="#24afaf"/>
    </linearGradient>
    <clipPath id="clip-path-2">
      <path id="Path_20" data-name="Path 20" d="M4765.863,4675c153.57-57.946,277.351-29.919,425.617,27.533s176.58,71.518,282.757,74.156,166.733-47.656,219.433-113.413S5772.992,4525.57,5826.433,4450s91.238-116.28,91.553-115.665,0,963.678,0,963.678H4298.126V4968.734s112.917,3.143,194.585-100.863S4612.292,4732.948,4765.863,4675Z" transform="translate(-4298.126 -4334.328)" fill="#fff"/>
    </clipPath>
    <linearGradient id="linear-gradient-2" x1="0.5" x2="0.5" y2="1" gradientUnits="objectBoundingBox">
      <stop offset="0" stop-color="#43e2b2"/>
      <stop offset="0.393" stop-color="#26b2af"/>
      <stop offset="1" stop-color="#1e9595"/>
    </linearGradient>
  </defs>
  <g id="Group_16" data-name="Group 16" transform="translate(-300)">
    <g id="Mask_Group_3" data-name="Mask Group 3" transform="translate(300)" clip-path="url(#clip-path)">
      <path id="Background" d="M0,0H1620V1076H0Z" fill="url(#linear-gradient)"/>
    </g>
    <g id="Mask_Group_4" data-name="Mask Group 4" transform="translate(300 613.315)" clip-path="url(#clip-path-2)">
      <path id="Background-2" data-name="Background" d="M0,0H1620V1076H0Z" transform="translate(0 -112.315)" fill="url(#linear-gradient-2)"/>
    </g>
    <path id="Path_21" data-name="Path 21" d="M5090,2856.882l810,.118V2625.481s-19.637,69.236-86.574,121.107-184.519-38.07-301.635-50.721-155.006,31.053-241.693,89.595S5090,2856.882,5090,2856.882Z" transform="translate(-3980 -1280)" fill="#342e37"/>
  </g>
</svg>
